<mxfile host="app.diagrams.net" modified="2024-01-22T17:16:38.258Z" agent="Mozilla/5.0 (Windows NT 10.0; Win64; x64) AppleWebKit/537.36 (KHTML, like Gecko) Chrome/120.0.0.0 Safari/537.36" etag="CWN20zfUuugenniLHpEV" version="22.1.17" type="device">
  <diagram name="Página-1" id="RZb7Ob5ed5OA5BJfn_0h">
    <mxGraphModel dx="1434" dy="772" grid="1" gridSize="10" guides="1" tooltips="1" connect="1" arrows="1" fold="1" page="1" pageScale="1" pageWidth="827" pageHeight="1169" math="0" shadow="0">
      <root>
        <mxCell id="0" />
        <mxCell id="1" parent="0" />
        <mxCell id="G4PrBYdIK3dhg6aQtYhX-1" value="" style="shape=umlLifeline;perimeter=lifelinePerimeter;whiteSpace=wrap;html=1;container=1;dropTarget=0;collapsible=0;recursiveResize=0;outlineConnect=0;portConstraint=eastwest;newEdgeStyle={&quot;curved&quot;:0,&quot;rounded&quot;:0};participant=umlActor;" vertex="1" parent="1">
          <mxGeometry x="140" y="200" width="20" height="300" as="geometry" />
        </mxCell>
        <mxCell id="G4PrBYdIK3dhg6aQtYhX-2" value="" style="html=1;points=[[0,0,0,0,5],[0,1,0,0,-5],[1,0,0,0,5],[1,1,0,0,-5]];perimeter=orthogonalPerimeter;outlineConnect=0;targetShapes=umlLifeline;portConstraint=eastwest;newEdgeStyle={&quot;curved&quot;:0,&quot;rounded&quot;:0};" vertex="1" parent="G4PrBYdIK3dhg6aQtYhX-1">
          <mxGeometry x="5" y="50" width="10" height="130" as="geometry" />
        </mxCell>
        <mxCell id="G4PrBYdIK3dhg6aQtYhX-3" value="sistema de passaporte" style="shape=umlLifeline;perimeter=lifelinePerimeter;whiteSpace=wrap;html=1;container=1;dropTarget=0;collapsible=0;recursiveResize=0;outlineConnect=0;portConstraint=eastwest;newEdgeStyle={&quot;curved&quot;:0,&quot;rounded&quot;:0};" vertex="1" parent="1">
          <mxGeometry x="260" y="200" width="100" height="300" as="geometry" />
        </mxCell>
        <mxCell id="G4PrBYdIK3dhg6aQtYhX-4" value="" style="html=1;points=[[0,0,0,0,5],[0,1,0,0,-5],[1,0,0,0,5],[1,1,0,0,-5]];perimeter=orthogonalPerimeter;outlineConnect=0;targetShapes=umlLifeline;portConstraint=eastwest;newEdgeStyle={&quot;curved&quot;:0,&quot;rounded&quot;:0};" vertex="1" parent="G4PrBYdIK3dhg6aQtYhX-3">
          <mxGeometry x="45" y="50" width="10" height="80" as="geometry" />
        </mxCell>
        <mxCell id="G4PrBYdIK3dhg6aQtYhX-5" value="login(senha, nome de usuario)" style="html=1;verticalAlign=bottom;endArrow=block;curved=0;rounded=0;" edge="1" parent="1" target="G4PrBYdIK3dhg6aQtYhX-3">
          <mxGeometry width="80" relative="1" as="geometry">
            <mxPoint x="160" y="260" as="sourcePoint" />
            <mxPoint x="240" y="260" as="targetPoint" />
          </mxGeometry>
        </mxCell>
        <mxCell id="G4PrBYdIK3dhg6aQtYhX-6" value="banco" style="shape=umlLifeline;perimeter=lifelinePerimeter;whiteSpace=wrap;html=1;container=1;dropTarget=0;collapsible=0;recursiveResize=0;outlineConnect=0;portConstraint=eastwest;newEdgeStyle={&quot;curved&quot;:0,&quot;rounded&quot;:0};participant=umlControl;" vertex="1" parent="1">
          <mxGeometry x="450" y="200" width="40" height="300" as="geometry" />
        </mxCell>
        <mxCell id="G4PrBYdIK3dhg6aQtYhX-7" value="" style="html=1;points=[[0,0,0,0,5],[0,1,0,0,-5],[1,0,0,0,5],[1,1,0,0,-5]];perimeter=orthogonalPerimeter;outlineConnect=0;targetShapes=umlLifeline;portConstraint=eastwest;newEdgeStyle={&quot;curved&quot;:0,&quot;rounded&quot;:0};" vertex="1" parent="G4PrBYdIK3dhg6aQtYhX-6">
          <mxGeometry x="15" y="70" width="10" height="50" as="geometry" />
        </mxCell>
        <mxCell id="G4PrBYdIK3dhg6aQtYhX-8" value="" style="html=1;points=[[0,0,0,0,5],[0,1,0,0,-5],[1,0,0,0,5],[1,1,0,0,-5]];perimeter=orthogonalPerimeter;outlineConnect=0;targetShapes=umlLifeline;portConstraint=eastwest;newEdgeStyle={&quot;curved&quot;:0,&quot;rounded&quot;:0};" vertex="1" parent="G4PrBYdIK3dhg6aQtYhX-6">
          <mxGeometry x="25" y="80" width="10" height="40" as="geometry" />
        </mxCell>
        <mxCell id="G4PrBYdIK3dhg6aQtYhX-9" value="analisar se login já existe, &lt;br&gt;se não fixa no banco" style="html=1;align=left;spacingLeft=2;endArrow=block;rounded=0;edgeStyle=orthogonalEdgeStyle;curved=0;rounded=0;" edge="1" target="G4PrBYdIK3dhg6aQtYhX-8" parent="G4PrBYdIK3dhg6aQtYhX-6">
          <mxGeometry relative="1" as="geometry">
            <mxPoint x="20" y="70" as="sourcePoint" />
            <Array as="points">
              <mxPoint x="50" y="100" />
            </Array>
          </mxGeometry>
        </mxCell>
        <mxCell id="G4PrBYdIK3dhg6aQtYhX-10" value="analisar" style="html=1;verticalAlign=bottom;endArrow=block;curved=0;rounded=0;" edge="1" parent="1" target="G4PrBYdIK3dhg6aQtYhX-6">
          <mxGeometry width="80" relative="1" as="geometry">
            <mxPoint x="320" y="280" as="sourcePoint" />
            <mxPoint x="400" y="280" as="targetPoint" />
          </mxGeometry>
        </mxCell>
        <mxCell id="G4PrBYdIK3dhg6aQtYhX-13" value="caso login existe,&lt;br&gt;avisar." style="html=1;verticalAlign=bottom;endArrow=open;dashed=1;endSize=8;curved=0;rounded=0;" edge="1" parent="1" source="G4PrBYdIK3dhg6aQtYhX-7">
          <mxGeometry relative="1" as="geometry">
            <mxPoint x="469.5" y="320" as="sourcePoint" />
            <mxPoint x="310" y="310" as="targetPoint" />
            <Array as="points" />
          </mxGeometry>
        </mxCell>
        <mxCell id="G4PrBYdIK3dhg6aQtYhX-14" value="return" style="html=1;verticalAlign=bottom;endArrow=open;dashed=1;endSize=8;curved=0;rounded=0;" edge="1" parent="1" source="G4PrBYdIK3dhg6aQtYhX-3">
          <mxGeometry relative="1" as="geometry">
            <mxPoint x="230" y="320" as="sourcePoint" />
            <mxPoint x="150" y="320" as="targetPoint" />
          </mxGeometry>
        </mxCell>
      </root>
    </mxGraphModel>
  </diagram>
</mxfile>
